<?xml version="1.0" encoding="utf-8"?>
<!-- Generator: Adobe Illustrator 19.0.0, SVG Export Plug-In . SVG Version: 6.00 Build 0)  -->
<svg version="1.1" id="Layer_1" xmlns="http://www.w3.org/2000/svg" xmlns:xlink="http://www.w3.org/1999/xlink" x="0px" y="0px"
	 viewBox="0 0 137 137.5" style="enable-background:new 0 0 137 137.5;" xml:space="preserve">
<style type="text/css">
	.st0{fill:#6A6D7A;}
</style>
<g>
	<path class="st0" d="M110.7,52.1l15-15.1c2.1,3.2,3.9,6.4,5.3,9.7c3.6,8.2,5.3,16.4,5.3,24.4c0,8-1.9,15.8-5.4,23.4
		c-3.6,7.6-8.5,14.6-14.9,21c-6.2,6.2-13.1,11.1-20.6,14.6c-7.5,3.5-15.4,5.3-23.5,5.5c-8.1,0.1-16.3-1.6-24.6-5.1
		c-3.3-1.4-6.5-3.3-9.8-5.4l15.1-15.2l6.7-6.6c4.3,2.1,8.5,3.5,12.7,4c4.6,0.5,9.2,0,13.5-1.6c4.4-1.6,8.5-4.3,12.4-8.1
		c3.8-3.8,6.5-7.9,8.1-12.3c1.6-4.4,2.2-9,1.6-13.6c-0.5-4.2-1.7-8.5-3.8-12.7L110.7,52.1z"/>
	<path class="st0" d="M34.1,78.5c0.8,1.6,2.1,3.4,3.3,5.1l-4.5,4.6l-17,16.7c-4-5.2-7.4-10.4-9.6-15.8c-3.5-8.4-5.2-16.6-5.1-24.8
		c0.1-8.2,1.9-16,5.4-23.5c3.5-7.5,8.2-14.3,14.2-20.3c6.2-6.2,13.1-11.1,20.6-14.6C49,2.4,56.9,0.6,65,0.5
		c8.2-0.1,16.4,1.6,24.6,5.2c5.4,2.3,10.6,5.6,15.7,9.7L88.6,32.2l-4.6,4.5c-1.7-1.2-5.6-3.3-7.8-4.5c-3.9-2-7.7-2.9-11.5-3.4
		c-4.6-0.5-9.2,0-13.6,1.6c-1.3,0.5-6.9,2.9-12.1,8.1c-5.5,5.5-7.5,11-8,12.4C26.3,64.8,31.3,73,34.1,78.5z"/>
</g>
</svg>
